<svg xmlns="http://www.w3.org/2000/svg" viewBox="0 0 929 927" role="img" aria-label="Quinto y Parque">
<path fill="#3D0A67" fill-rule="evenodd" d="M669,757 669,838 675,856 686,869 699,875 718,876 733,871 743,862 745,873 788,872 787,756 742,757 742,821 740,826 731,832 721,830 715,821 715,757Z M551,765 543,772 532,789 527,809 529,832 539,853 551,865 573,875 595,875 612,866 612,917 659,917 659,757 617,756 615,764 613,765 607,760 598,756 578,754 561,759Z M581,799 588,796 598,796 605,799 609,803 613,811 613,819 610,826 604,832 599,834 587,834 576,826 573,818 573,811Z M527,755 511,754 500,758 490,767 488,756 445,757 446,873 491,873 492,812 495,806 503,799 512,797 526,798Z M318,774 307,793 303,810 303,821 310,845 315,853 326,864 340,872 355,876 375,874 389,864 391,865 391,873 435,873 434,756 392,756 391,764 389,765 377,757 366,754 357,754 334,761Z M361,797 375,796 381,799 389,809 390,817 388,824 376,834 363,834 357,831 350,822 350,809 352,805Z M843,754 820,763 803,779 793,801 793,829 797,841 803,851 819,866 834,873 848,876 866,876 877,874 900,862 908,854 918,835 874,830 868,837 860,840 854,840 845,836 838,826 840,824 919,821 919,798 915,787 908,776 895,764 886,759 870,754Z M839,801 845,792 854,788 864,789 874,798 873,800 868,801Z M284,738 270,730 253,725 218,724 166,726 159,891 211,891 213,849 244,849 259,846 276,838 291,825 297,816 303,801 305,777 303,766 298,754Z M216,770 238,769 246,772 251,777 253,782 253,790 249,798 240,804 216,805Z M402,572 401,708 458,708 458,572Z M240,573 241,665 248,687 260,701 267,706 278,710 300,712 320,707 337,694 341,708 390,708 390,572 333,573 333,645 330,653 325,658 317,661 306,659 300,653 298,648 297,572Z M776,574 759,583 748,593 739,605 733,618 730,632 730,649 735,668 743,682 749,689 765,701 775,706 793,711 816,712 831,710 844,706 862,696 871,688 882,673 889,652 890,636 888,622 877,599 868,589 854,579 830,570 803,568Z M808,616 822,619 830,626 834,635 834,644 830,654 822,661 812,664 807,664 796,660 790,654 786,645 786,636 790,626 795,621Z M604,584 593,575 582,570 560,568 540,575 523,591 519,572 469,572 469,708 526,708 526,634 528,628 538,620 549,620 553,622 558,627 560,632 560,707 618,708 618,620 614,601Z M633,534 632,571 622,573 622,619 632,620 632,663 635,678 639,687 650,700 671,710 705,711 728,706 730,701 724,657 701,661 694,659 688,650 689,619 724,618 724,573 688,571 688,534Z M420,508 410,512 401,520 396,531 397,547 402,556 412,564 422,567 435,566 447,560 453,553 457,543 456,528 451,519 443,512 432,508Z M46,544 36,558 25,584 22,601 22,620 25,638 31,654 42,672 53,684 78,701 93,707 112,711 141,711 161,706 171,702 176,708 239,708 210,672 222,649 227,635 230,604 228,588 222,569 211,550 198,535 180,522 160,513 136,508 114,508 92,513 76,520 58,532Z M119,566 132,566 149,572 161,583 166,591 170,603 170,615 168,621 155,608 107,621 132,652 131,654 119,654 101,647 87,632 82,618 83,598 90,584 104,571Z M181,117 168,128 162,139 160,147 160,171 169,348 173,368 182,388 200,410 226,427 257,436 280,437 313,482 412,482 370,424 387,412 406,391 414,376 420,356 421,185 417,167 408,149 401,140 386,127 369,118 351,113 197,112Z M211,175 219,172 360,172 370,176 375,182 377,187 373,225 375,227 375,233 373,239 373,254 368,287 365,326 363,332 361,365 357,374 349,383 338,389 254,389 246,387 240,383 232,374 228,365 207,233 208,224 203,195 203,185Z"/>
<path fill="#F21B6D" fill-rule="evenodd" d="M443,117 442,481 481,481 482,443 489,441 548,442 549,480 551,482 588,481 589,345 587,338 568,301 543,275 533,268 510,258 485,257 481,255 481,185 489,168 494,163 505,157 523,156 533,160 547,175 551,189 550,247 589,247 589,117Z M482,370 548,369 549,402 483,403Z M482,297 548,296 549,329 483,330Z M587,118 588,117 589,119 588,120Z M612,94 520,13 512,9 502,8 491,12 393,91 391,94 391,99 398,104 603,104 611,101Z"/>
<path fill="#99D508" fill-rule="evenodd" d="M144,750 95,751 84,786 77,802 59,751 8,751 51,855 44,860 20,860 15,898 16,903 31,905 59,904 78,896 91,883 101,863 125,800 144,756Z M531,249 558,266 572,280 583,295 596,320 615,376 630,409 651,442 669,461 681,470 696,478 715,483 812,482 812,464 809,454 804,445 795,436 777,427 749,422 734,417 723,411 710,399 696,376 679,330 664,300 652,283 634,265 612,253 594,248Z"/>
<path fill="#FDC90A" fill-rule="evenodd" d="M209,225 228,339 230,360 235,374 242,381 253,386 336,386 347,381 354,373 358,361 372,225Z"/>
</svg>
